# xmcd
#
# Track frame offsets:
#	150
#	15985
#	31865
#	44625
#	61799
#	79392
#	95235
#	111613
#	125056
#
# Disc length: 1905 seconds
#
# Revision: 1
# Processed by: cddbd v1.5.2PL0 Copyright (c) Steve Scherf et al.
# Submitted via: audiograbber 1.83.01
#
DISCID=7b076f09
DTITLE=Evi - Make This Life A Dance
DYEAR=2016
DGENRE=Country
TTITLE0=Make This Life A Dance
TTITLE1=Teach Us To Forget
TTITLE2=One Heartbeat Away
TTITLE3=When You Call Me Baby
TTITLE4=Neon Moon
TTITLE5=You Comb Her Hair
TTITLE6=Reckless Heart
TTITLE7=You Win Again
TTITLE8=In God's Hands
EXTD=
EXTT0=
EXTT1=
EXTT2=
EXTT3=
EXTT4=
EXTT5=
EXTT6=
EXTT7=
EXTT8=
PLAYORDER=
